{"title":"Aashiqui 2 2013 Hindi DVDRip ESubs XviD AC3-5.1-K@rtik","uid":8541993,"size":696703080,"categoryP":"video","categoryS":"movies","magnet":"?xt=urn:btih:8b9c5ac3c163b476baf9f351014611a682fc9fbb&amp;dn=Aashiqui+2+2013+Hindi+DVDRip+ESubs+XviD+AC3-5.1-K%40rtik&amp;tr=udp%3A%2F%2Ftracker.openbittorrent.com%3A80&amp;tr=udp%3A%2F%2Fopen.demonii.com%3A1337&amp;tr=udp%3A%2F%2Ftracker.coppersurfer.tk%3A6969&amp;tr=udp%3A%2F%2Fexodus.desync.com%3A6969","seeders":3,"leechers":1,"uploader":"HeroMaster","files":-1,"time":1370417801,"description":"Aashiqui 2 2013 Hindi DVDRip ESubs XviD AC3-5.1-K@rtik\n\n\nIMDB: http://www.imdb.com/title/tt2203308/\n\nLanguage: Hindi\n\nSubs: English \n\nSample Included\n\n\nRip Information:\n\nFormat                                   : AVI\nFormat/Info                              : Audio Video Interleave\nFile size                                : 650 MiB\nDuration                                 : 2h 14mn\nOverall bit rate                         : 676 Kbps\n\n\nVideo:\n\nCode:\nFormat                                   : MPEG-4 Visual\nFormat profile                           : Advanced Simple@L5\nFormat settings, BVOP                    : 2\nFormat settings, QPel                    : No\nFormat settings, GMC                     : No warppoints\nFormat settings, Matrix                  : Default (MPEG)\nCodec ID                                 : XVID\nCodec ID/Hint                            : XviD\nDuration                                 : 2h 14mn\nBit rate                                 : 539 Kbps\nWidth                                    : 688 pixels\nHeight                                   : 288 pixels\nDisplay aspect ratio                     : 2.40:1\nFrame rate                               : 29.970 fps\nColor space                              : YUV\nChroma subsampling                       : 4:2:0\nBit depth                                : 8 bits\nScan type                                : Progressive\nCompression mode                         : Lossy\nBits/(Pixel*Frame)                       : 0.091\nStream size                              : 519 MiB (80%)\nWriting library                          : XviD 1.2.1 (UTC 2008-12-04)\n\n\nAudio:\n\nCode:\nFormat                                   : AC-3\nFormat/Info                              : Audio Coding 3\nMode extension                           : CM (complete main)\nFormat settings, Endianness              : Big\nCodec ID                                 : 2000\nDuration                                 : 2h 14mn\nBit rate mode                            : Constant\nBit rate                                 : 128 Kbps\nChannel(s)                               : 6 channels\nChannel positions                        : Front: L C R, Side: L R, LFE\nSampling rate                            : 48.0 KHz\nBit depth                                : 16 bits\nCompression mode                         : Lossy\nStream size                              : 123 MiB (19%)\nAlignment                                : Aligned on interleaves\nInterleave, duration                     : 64 ms (1.92 video frames)\n\n\n==Team EXD Exclusive==\n\n\nPoster:\n\n &lt;a href=&quot;\nhttp://i.imgur.com/RTaMSFy.jpg&quot; rel=&quot;nofollow&quot; target=&quot;_NEW&quot;&gt;\nhttp://i.imgur.com/RTaMSFy.jpg&lt;/a&gt;\n\n\nScreenshots:\n\n &lt;a href=&quot;\nhttp://i.imgur.com/x4Kb0wa.png&quot; rel=&quot;nofollow&quot; target=&quot;_NEW&quot;&gt;\nhttp://i.imgur.com/x4Kb0wa.png&lt;/a&gt;\n\n &lt;a href=&quot;\nhttp://i.imgur.com/GMr1SK3.png&quot; rel=&quot;nofollow&quot; target=&quot;_NEW&quot;&gt;\nhttp://i.imgur.com/GMr1SK3.png&lt;/a&gt;\n\n &lt;a href=&quot;\nhttp://i.imgur.com/KZdnCwD.png&quot; rel=&quot;nofollow&quot; target=&quot;_NEW&quot;&gt;\nhttp://i.imgur.com/KZdnCwD.png&lt;/a&gt;\n\n\nSEED AND ENJOY!","torrent":{"xt":"urn:btih:8b9c5ac3c163b476baf9f351014611a682fc9fbb","amp;dn":"Aashiqui+2+2013+Hindi+DVDRip+ESubs+XviD+AC3-5.1-K%40rtik","amp;tr":["udp%3A%2F%2Ftracker.openbittorrent.com%3A80","udp%3A%2F%2Fopen.demonii.com%3A1337","udp%3A%2F%2Ftracker.coppersurfer.tk%3A6969","udp%3A%2F%2Fexodus.desync.com%3A6969"],"infoHash":"8b9c5ac3c163b476baf9f351014611a682fc9fbb","infoHashBuffer":{"type":"Buffer","data":[139,156,90,195,193,99,180,118,186,249,243,81,1,70,17,166,130,252,159,187]},"announce":[],"urlList":[]}}